<svg width="64" height="64" viewBox="0 0 64 64" fill="none" xmlns="http://www.w3.org/2000/svg">
<g opacity="0.9">
<path d="M8 46L32 56L56 46L32 36L8 46Z" fill="#102A40"/>
<path d="M31.9512 35.7549C31.9994 35.7453 32.0496 35.7504 32.0957 35.7695L56.0957 45.7695C56.1889 45.8083 56.25 45.8991 56.25 46C56.25 46.1009 56.1889 46.1917 56.0957 46.2305L32.0957 56.2305C32.0343 56.256 31.9657 56.256 31.9043 56.2305L7.9043 46.2305C7.81114 46.1917 7.75 46.1009 7.75 46C7.75 45.8991 7.81114 45.8083 7.9043 45.7695L31.9043 35.7695L31.9512 35.7549Z" stroke="white" stroke-opacity="0.15" stroke-width="0.5" stroke-linejoin="round"/>
</g>
<path d="M8 38L32 48L56 38L32 28L8 38Z" fill="#1C3D5A"/>
<path d="M31.9512 27.7549C31.9994 27.7453 32.0496 27.7504 32.0957 27.7695L56.0957 37.7695C56.1889 37.8083 56.25 37.8991 56.25 38C56.25 38.1009 56.1889 38.1917 56.0957 38.2305L32.0957 48.2305C32.0343 48.256 31.9657 48.256 31.9043 48.2305L7.9043 38.2305C7.81114 38.1917 7.75 38.1009 7.75 38C7.75 37.8991 7.81114 37.8083 7.9043 37.7695L31.9043 27.7695L31.9512 27.7549Z" stroke="white" stroke-opacity="0.15" stroke-width="0.5" stroke-linejoin="round"/>
<path d="M8 30L32 40L56 30L32 20L8 30Z" fill="#3A6B8C"/>
<path d="M31.9512 19.7549C31.9994 19.7453 32.0496 19.7504 32.0957 19.7695L56.0957 29.7695C56.1889 29.8083 56.25 29.8991 56.25 30C56.25 30.1009 56.1889 30.1917 56.0957 30.2305L32.0957 40.2305C32.0343 40.256 31.9657 40.256 31.9043 40.2305L7.9043 30.2305C7.81114 30.1917 7.75 30.1009 7.75 30C7.75 29.8991 7.81114 29.8083 7.9043 29.7695L31.9043 19.7695L31.9512 19.7549Z" stroke="white" stroke-opacity="0.15" stroke-width="0.5" stroke-linejoin="round"/>
<path d="M8 22L32 32L56 22L32 12L8 22Z" fill="#6BA3C7"/>
<path d="M31.9512 11.7549C31.9994 11.7453 32.0496 11.7504 32.0957 11.7695L56.0957 21.7695C56.1889 21.8083 56.25 21.8991 56.25 22C56.25 22.1009 56.1889 22.1917 56.0957 22.2305L32.0957 32.2305C32.0343 32.256 31.9657 32.256 31.9043 32.2305L7.9043 22.2305C7.81114 22.1917 7.75 22.1009 7.75 22C7.75 21.8991 7.81114 21.8083 7.9043 21.7695L31.9043 11.7695L31.9512 11.7549Z" stroke="white" stroke-opacity="0.15" stroke-width="0.5" stroke-linejoin="round"/>
<path d="M8 14L32 24L56 14L32 4L8 14Z" fill="#A8D4E8"/>
<path d="M31.9512 3.75488C31.9994 3.74528 32.0496 3.75039 32.0957 3.76953L56.0957 13.7695C56.1889 13.8083 56.25 13.8991 56.25 14C56.25 14.1009 56.1889 14.1917 56.0957 14.2305L32.0957 24.2305C32.0343 24.256 31.9657 24.256 31.9043 24.2305L7.9043 14.2305C7.81114 14.1917 7.75 14.1009 7.75 14C7.75 13.8991 7.81114 13.8083 7.9043 13.7695L31.9043 3.76953L31.9512 3.75488Z" stroke="white" stroke-opacity="0.15" stroke-width="0.5" stroke-linejoin="round"/>
<path d="M19 22L29 33L47 10" stroke="url(#paint0_fav)" stroke-width="5" stroke-linecap="round" stroke-linejoin="round"/>
<defs>
<linearGradient id="paint0_fav" x1="19" y1="10" x2="41.5621" y2="37.4669" gradientUnits="userSpaceOnUse">
  <stop stop-color="#5A9E86"/>
  <stop offset="1" stop-color="#1C3D5A"/>
</linearGradient>
</defs>
</svg>