<svg width="77" height="77" viewBox="0 0 77 77" fill="none" xmlns="http://www.w3.org/2000/svg">
<rect opacity="0.15" width="77" height="77" rx="2" fill="#76B9A1"/>
<g opacity="0.9">
<path d="M15 55L39 65L63 55L39 45L15 55Z" fill="#102A40"/>
<path d="M38.9512 44.7549C38.9994 44.7453 39.0496 44.7504 39.0957 44.7695L63.0957 54.7695C63.1889 54.8083 63.25 54.8991 63.25 55C63.25 55.1009 63.1889 55.1917 63.0957 55.2305L39.0957 65.2305C39.0343 65.256 38.9657 65.256 38.9043 65.2305L14.9043 55.2305C14.8111 55.1917 14.75 55.1009 14.75 55C14.75 54.8991 14.8111 54.8083 14.9043 54.7695L38.9043 44.7695L38.9512 44.7549Z" stroke="white" stroke-opacity="0.15" stroke-width="0.5" stroke-linejoin="round"/>
</g>
<path d="M15 47L39 57L63 47L39 37L15 47Z" fill="#1C3D5A"/>
<path d="M38.9512 36.7549C38.9994 36.7453 39.0496 36.7504 39.0957 36.7695L63.0957 46.7695C63.1889 46.8083 63.25 46.8991 63.25 47C63.25 47.1009 63.1889 47.1917 63.0957 47.2305L39.0957 57.2305C39.0343 57.256 38.9657 57.256 38.9043 57.2305L14.9043 47.2305C14.8111 47.1917 14.75 47.1009 14.75 47C14.75 46.8991 14.8111 46.8083 14.9043 46.7695L38.9043 36.7695L38.9512 36.7549Z" stroke="white" stroke-opacity="0.15" stroke-width="0.5" stroke-linejoin="round"/>
<path d="M15 39L39 49L63 39L39 29L15 39Z" fill="#3A6B8C"/>
<path d="M38.9512 28.7549C38.9994 28.7453 39.0496 28.7504 39.0957 28.7695L63.0957 38.7695C63.1889 38.8083 63.25 38.8991 63.25 39C63.25 39.1009 63.1889 39.1917 63.0957 39.2305L39.0957 49.2305C39.0343 49.256 38.9657 49.256 38.9043 49.2305L14.9043 39.2305C14.8111 39.1917 14.75 39.1009 14.75 39C14.75 38.8991 14.8111 38.8083 14.9043 38.7695L38.9043 28.7695L38.9512 28.7549Z" stroke="white" stroke-opacity="0.15" stroke-width="0.5" stroke-linejoin="round"/>
<path d="M15 31L39 41L63 31L39 21L15 31Z" fill="#6BA3C7"/>
<path d="M38.9512 20.7549C38.9994 20.7453 39.0496 20.7504 39.0957 20.7695L63.0957 30.7695C63.1889 30.8083 63.25 30.8991 63.25 31C63.25 31.1009 63.1889 31.1917 63.0957 31.2305L39.0957 41.2305C39.0343 41.256 38.9657 41.256 38.9043 41.2305L14.9043 31.2305C14.8111 31.1917 14.75 31.1009 14.75 31C14.75 30.8991 14.8111 30.8083 14.9043 30.7695L38.9043 20.7695L38.9512 20.7549Z" stroke="white" stroke-opacity="0.15" stroke-width="0.5" stroke-linejoin="round"/>
<path d="M15 23L39 33L63 23L39 13L15 23Z" fill="#A8D4E8"/>
<path d="M38.9512 12.7549C38.9994 12.7453 39.0496 12.7504 39.0957 12.7695L63.0957 22.7695C63.1889 22.8083 63.25 22.8991 63.25 23C63.25 23.1009 63.1889 23.1917 63.0957 23.2305L39.0957 33.2305C39.0343 33.256 38.9657 33.256 38.9043 33.2305L14.9043 23.2305C14.8111 23.1917 14.75 23.1009 14.75 23C14.75 22.8991 14.8111 22.8083 14.9043 22.7695L38.9043 12.7695L38.9512 12.7549Z" stroke="white" stroke-opacity="0.15" stroke-width="0.5" stroke-linejoin="round"/>
<path d="M26 31L36 42L54 19" stroke="url(#paint0_linear_8_48)" stroke-width="5" stroke-linecap="round" stroke-linejoin="round"/>
<defs>
<linearGradient id="paint0_linear_8_48" x1="26" y1="19" x2="48.5621" y2="46.4669" gradientUnits="userSpaceOnUse">
<stop stop-color="#5A9E86"/>
<stop offset="1" stop-color="#1C3D5A"/>
</linearGradient>
</defs>
</svg>