<svg width="260" height="64" viewBox="0 0 260 64" fill="none" xmlns="http://www.w3.org/2000/svg">
<g transform="translate(0, -2) scale(1.06)">
  <g opacity="0.9">
  <path d="M8 46L32 56L56 46L32 36L8 46Z" fill="#102A40"/>
  <path d="M31.9512 35.7549C31.9994 35.7453 32.0496 35.7504 32.0957 35.7695L56.0957 45.7695C56.1889 45.8083 56.25 45.8991 56.25 46C56.25 46.1009 56.1889 46.1917 56.0957 46.2305L32.0957 56.2305C32.0343 56.256 31.9657 56.256 31.9043 56.2305L7.9043 46.2305C7.81114 46.1917 7.75 46.1009 7.75 46C7.75 45.8991 7.81114 45.8083 7.9043 45.7695L31.9043 35.7695L31.9512 35.7549Z" stroke="white" stroke-opacity="0.15" stroke-width="0.5" stroke-linejoin="round"/>
  </g>
  <path d="M8 38L32 48L56 38L32 28L8 38Z" fill="#1C3D5A"/>
  <path d="M31.9512 27.7549C31.9994 27.7453 32.0496 27.7504 32.0957 27.7695L56.0957 37.7695C56.1889 37.8083 56.25 37.8991 56.25 38C56.25 38.1009 56.1889 38.1917 56.0957 38.2305L32.0957 48.2305C32.0343 48.256 31.9657 48.256 31.9043 48.2305L7.9043 38.2305C7.81114 38.1917 7.75 38.1009 7.75 38C7.75 37.8991 7.81114 37.8083 7.9043 37.7695L31.9043 27.7695L31.9512 27.7549Z" stroke="white" stroke-opacity="0.15" stroke-width="0.5" stroke-linejoin="round"/>
  <path d="M8 30L32 40L56 30L32 20L8 30Z" fill="#3A6B8C"/>
  <path d="M31.9512 19.7549C31.9994 19.7453 32.0496 19.7504 32.0957 19.7695L56.0957 29.7695C56.1889 29.8083 56.25 29.8991 56.25 30C56.25 30.1009 56.1889 30.1917 56.0957 30.2305L32.0957 40.2305C32.0343 40.256 31.9657 40.256 31.9043 40.2305L7.9043 30.2305C7.81114 30.1917 7.75 30.1009 7.75 30C7.75 29.8991 7.81114 29.8083 7.9043 29.7695L31.9043 19.7695L31.9512 19.7549Z" stroke="white" stroke-opacity="0.15" stroke-width="0.5" stroke-linejoin="round"/>
  <path d="M8 22L32 32L56 22L32 12L8 22Z" fill="#6BA3C7"/>
  <path d="M31.9512 11.7549C31.9994 11.7453 32.0496 11.7504 32.0957 11.7695L56.0957 21.7695C56.1889 21.8083 56.25 21.8991 56.25 22C56.25 22.1009 56.1889 22.1917 56.0957 22.2305L32.0957 32.2305C32.0343 32.256 31.9657 32.256 31.9043 32.2305L7.9043 22.2305C7.81114 22.1917 7.75 22.1009 7.75 22C7.75 21.8991 7.81114 21.8083 7.9043 21.7695L31.9043 11.7695L31.9512 11.7549Z" stroke="white" stroke-opacity="0.15" stroke-width="0.5" stroke-linejoin="round"/>
  <path d="M8 14L32 24L56 14L32 4L8 14Z" fill="#A8D4E8"/>
  <path d="M31.9512 3.75488C31.9994 3.74528 32.0496 3.75039 32.0957 3.76953L56.0957 13.7695C56.1889 13.8083 56.25 13.8991 56.25 14C56.25 14.1009 56.1889 14.1917 56.0957 14.2305L32.0957 24.2305C32.0343 24.256 31.9657 24.256 31.9043 24.2305L7.9043 14.2305C7.81114 14.1917 7.75 14.1009 7.75 14C7.75 13.8991 7.81114 13.8083 7.9043 13.7695L31.9043 3.76953L31.9512 3.75488Z" stroke="white" stroke-opacity="0.15" stroke-width="0.5" stroke-linejoin="round"/>
  <path d="M19 22L29 33L47 10" stroke="url(#paint0_linear)" stroke-width="5" stroke-linecap="round" stroke-linejoin="round"/>
</g>
<path d="M84 23.9536V19.4794H104.132V23.9536H96.5953V45.6031H91.5368V23.9536H84Z" fill="#1C3D5A"/>
<path d="M106.84 45.6031V26.0103H111.864V45.6031H106.84ZM109.352 23.4485C107.824 23.4485 106.602 22.2216 106.602 20.7423C106.602 19.2268 107.824 18 109.352 18C110.846 18 112.068 19.2268 112.068 20.7423C112.068 22.2216 110.846 23.4485 109.352 23.4485Z" fill="#1C3D5A"/>
<path d="M123.705 46C118.069 46 114.674 41.8505 114.674 35.8608C114.674 29.8711 118.103 25.7577 123.705 25.7577C128.458 25.7577 131.683 28.7165 131.887 33.1907H127.168C126.862 31.2423 125.674 29.9072 123.773 29.9072C121.362 29.9072 119.767 32.0722 119.767 35.7887C119.767 39.5773 121.328 41.7423 123.773 41.7423C125.538 41.7423 126.862 40.5876 127.168 38.4948H131.887C131.649 42.933 128.593 46 123.705 46Z" fill="#1C3D5A"/>
<path d="M134.662 45.6031V19.4794H139.687V33.5155H139.958L145.933 26.0103H151.705L144.847 34.4897L152.078 45.6031H146.171L141.113 37.6289L139.687 39.3247V45.6031H134.662Z" fill="#1C3D5A"/>
<path d="M162.459 45.6031H153.802V19.4794H162.561C169.962 19.4794 174.477 24.3866 174.477 32.5052C174.477 40.6959 169.962 45.6031 162.459 45.6031ZM158.894 40.9485H162.255C166.94 40.9485 169.384 38.3505 169.384 32.5052C169.384 26.6959 166.94 24.134 162.289 24.134H158.894V40.9485Z" fill="#5A9E86"/>
<path d="M186.08 46C180.444 46 176.981 42.1031 176.981 35.8969C176.981 29.8351 180.478 25.7577 185.876 25.7577C190.731 25.7577 194.533 29.0052 194.533 35.6804V37.1959H181.938C181.938 40.1546 183.601 41.9948 186.181 41.9948C187.879 41.9948 189.101 41.201 189.61 40.0103H194.397C193.684 43.6186 190.629 46 186.08 46ZM181.938 33.8402H189.78C189.78 31.4588 188.218 29.7629 185.978 29.7629C183.669 29.7629 182.023 31.5851 181.938 33.8402Z" fill="#5A9E86"/>
<path d="M205.626 46C199.991 46 196.596 41.8505 196.596 35.8608C196.596 29.8711 200.025 25.7577 205.626 25.7577C210.379 25.7577 213.604 28.7165 213.808 33.1907H209.089C208.784 31.2423 207.595 29.9072 205.694 29.9072C203.284 29.9072 201.688 32.0722 201.688 35.7887C201.688 39.5773 203.25 41.7423 205.694 41.7423C207.46 41.7423 208.784 40.5876 209.089 38.4948H213.808C213.571 42.933 210.515 46 205.626 46Z" fill="#5A9E86"/>
<path d="M216.584 45.6031V19.4794H221.608V33.5155H221.88L227.855 26.0103H233.627L226.769 34.4897L234 45.6031H228.093L223.034 37.6289L221.608 39.3247V45.6031H216.584Z" fill="#5A9E86"/>
<defs>
<linearGradient id="paint0_linear" x1="19" y1="10" x2="41.5621" y2="37.4669" gradientUnits="userSpaceOnUse">
  <stop stop-color="#5A9E86"/>
  <stop offset="1" stop-color="#1C3D5A"/>
</linearGradient>
</defs>
</svg>