<svg width="234" height="64" viewBox="0 0 234 64" fill="none" xmlns="http://www.w3.org/2000/svg">
<path d="M74 23.9536V19.4794H94.1321V23.9536H86.5953V45.6031H81.5368V23.9536H74Z" fill="#1C3D5A"/>
<path d="M96.8399 45.6031V26.0103H101.864V45.6031H96.8399ZM99.3522 23.4485C97.8244 23.4485 96.6023 22.2216 96.6023 20.7423C96.6023 19.2268 97.8244 18 99.3522 18C100.846 18 102.068 19.2268 102.068 20.7423C102.068 22.2216 100.846 23.4485 99.3522 23.4485Z" fill="#1C3D5A"/>
<path d="M113.705 46C108.069 46 104.674 41.8505 104.674 35.8608C104.674 29.8711 108.103 25.7577 113.705 25.7577C118.458 25.7577 121.683 28.7165 121.887 33.1907H117.168C116.862 31.2423 115.674 29.9072 113.773 29.9072C111.362 29.9072 109.767 32.0722 109.767 35.7887C109.767 39.5773 111.328 41.7423 113.773 41.7423C115.538 41.7423 116.862 40.5876 117.168 38.4948H121.887C121.649 42.933 118.593 46 113.705 46Z" fill="#1C3D5A"/>
<path d="M124.662 45.6031V19.4794H129.687V33.5155H129.958L135.933 26.0103H141.705L134.847 34.4897L142.078 45.6031H136.171L131.113 37.6289L129.687 39.3247V45.6031H124.662Z" fill="#1C3D5A"/>
<path d="M152.459 45.6031H143.802V19.4794H152.561C159.962 19.4794 164.477 24.3866 164.477 32.5052C164.477 40.6959 159.962 45.6031 152.459 45.6031ZM148.894 40.9485H152.255C156.94 40.9485 159.384 38.3505 159.384 32.5052C159.384 26.6959 156.94 24.134 152.289 24.134H148.894V40.9485Z" fill="#5A9E86"/>
<path d="M176.08 46C170.444 46 166.981 42.1031 166.981 35.8969C166.981 29.8351 170.478 25.7577 175.876 25.7577C180.731 25.7577 184.533 29.0052 184.533 35.6804V37.1959H171.938C171.938 40.1546 173.601 41.9948 176.181 41.9948C177.879 41.9948 179.101 41.201 179.61 40.0103H184.397C183.684 43.6186 180.629 46 176.08 46ZM171.938 33.8402H179.78C179.78 31.4588 178.218 29.7629 175.978 29.7629C173.669 29.7629 172.023 31.5851 171.938 33.8402Z" fill="#5A9E86"/>
<path d="M195.626 46C189.991 46 186.596 41.8505 186.596 35.8608C186.596 29.8711 190.025 25.7577 195.626 25.7577C200.379 25.7577 203.604 28.7165 203.808 33.1907H199.089C198.784 31.2423 197.595 29.9072 195.694 29.9072C193.284 29.9072 191.688 32.0722 191.688 35.7887C191.688 39.5773 193.25 41.7423 195.694 41.7423C197.46 41.7423 198.784 40.5876 199.089 38.4948H203.808C203.571 42.933 200.515 46 195.626 46Z" fill="#5A9E86"/>
<path d="M206.584 45.6031V19.4794H211.608V33.5155H211.88L217.855 26.0103H223.627L216.769 34.4897L224 45.6031H218.093L213.034 37.6289L211.608 39.3247V45.6031H206.584Z" fill="#5A9E86"/>
<g opacity="0.9">
<path d="M8 46L32 56L56 46L32 36L8 46Z" fill="#102A40"/>
<path d="M31.9512 35.7549C31.9994 35.7453 32.0496 35.7504 32.0957 35.7695L56.0957 45.7695C56.1889 45.8083 56.25 45.8991 56.25 46C56.25 46.1009 56.1889 46.1917 56.0957 46.2305L32.0957 56.2305C32.0343 56.256 31.9657 56.256 31.9043 56.2305L7.9043 46.2305C7.81114 46.1917 7.75 46.1009 7.75 46C7.75 45.8991 7.81114 45.8083 7.9043 45.7695L31.9043 35.7695L31.9512 35.7549Z" stroke="white" stroke-opacity="0.15" stroke-width="0.5" stroke-linejoin="round"/>
</g>
<path d="M8 38L32 48L56 38L32 28L8 38Z" fill="#1C3D5A"/>
<path d="M31.9512 27.7549C31.9994 27.7453 32.0496 27.7504 32.0957 27.7695L56.0957 37.7695C56.1889 37.8083 56.25 37.8991 56.25 38C56.25 38.1009 56.1889 38.1917 56.0957 38.2305L32.0957 48.2305C32.0343 48.256 31.9657 48.256 31.9043 48.2305L7.9043 38.2305C7.81114 38.1917 7.75 38.1009 7.75 38C7.75 37.8991 7.81114 37.8083 7.9043 37.7695L31.9043 27.7695L31.9512 27.7549Z" stroke="white" stroke-opacity="0.15" stroke-width="0.5" stroke-linejoin="round"/>
<path d="M8 30L32 40L56 30L32 20L8 30Z" fill="#3A6B8C"/>
<path d="M31.9512 19.7549C31.9994 19.7453 32.0496 19.7504 32.0957 19.7695L56.0957 29.7695C56.1889 29.8083 56.25 29.8991 56.25 30C56.25 30.1009 56.1889 30.1917 56.0957 30.2305L32.0957 40.2305C32.0343 40.256 31.9657 40.256 31.9043 40.2305L7.9043 30.2305C7.81114 30.1917 7.75 30.1009 7.75 30C7.75 29.8991 7.81114 29.8083 7.9043 29.7695L31.9043 19.7695L31.9512 19.7549Z" stroke="white" stroke-opacity="0.15" stroke-width="0.5" stroke-linejoin="round"/>
<path d="M8 22L32 32L56 22L32 12L8 22Z" fill="#6BA3C7"/>
<path d="M31.9512 11.7549C31.9994 11.7453 32.0496 11.7504 32.0957 11.7695L56.0957 21.7695C56.1889 21.8083 56.25 21.8991 56.25 22C56.25 22.1009 56.1889 22.1917 56.0957 22.2305L32.0957 32.2305C32.0343 32.256 31.9657 32.256 31.9043 32.2305L7.9043 22.2305C7.81114 22.1917 7.75 22.1009 7.75 22C7.75 21.8991 7.81114 21.8083 7.9043 21.7695L31.9043 11.7695L31.9512 11.7549Z" stroke="white" stroke-opacity="0.15" stroke-width="0.5" stroke-linejoin="round"/>
<path d="M8 14L32 24L56 14L32 4L8 14Z" fill="#A8D4E8"/>
<path d="M31.9512 3.75488C31.9994 3.74528 32.0496 3.75039 32.0957 3.76953L56.0957 13.7695C56.1889 13.8083 56.25 13.8991 56.25 14C56.25 14.1009 56.1889 14.1917 56.0957 14.2305L32.0957 24.2305C32.0343 24.256 31.9657 24.256 31.9043 24.2305L7.9043 14.2305C7.81114 14.1917 7.75 14.1009 7.75 14C7.75 13.8991 7.81114 13.8083 7.9043 13.7695L31.9043 3.76953L31.9512 3.75488Z" stroke="white" stroke-opacity="0.15" stroke-width="0.5" stroke-linejoin="round"/>
<path d="M19 22L29 33L47 10" stroke="url(#paint0_linear_8_186)" stroke-width="5" stroke-linecap="round" stroke-linejoin="round"/>
<defs>
<linearGradient id="paint0_linear_8_186" x1="19" y1="10" x2="41.5621" y2="37.4669" gradientUnits="userSpaceOnUse">
<stop stop-color="#5A9E86"/>
<stop offset="1" stop-color="#1C3D5A"/>
</linearGradient>
</defs>
</svg>