<svg class="tdc-svg tdc-map-data-svg" xmlns="http://www.w3.org/2000/svg" viewBox="0 0 1280 720" width="1280" height="720" role="img" aria-label="지역 수요">
  <defs>
    <filter id="tdc-shadow" x="-20%" y="-20%" width="140%" height="150%">
      <feDropShadow dx="0" dy="16" stdDeviation="18" flood-color="#0f172a" flood-opacity="0.13"/>
    </filter>
    <linearGradient id="tdc-purple" x1="0" y1="0" x2="1" y2="1">
      <stop offset="0%" stop-color="#2563eb"/>
      <stop offset="100%" stop-color="#1e3a8a"/>
    </linearGradient>
    <linearGradient id="tdc-green" x1="0" y1="0" x2="1" y2="1">
      <stop offset="0%" stop-color="#e2e8f0"/>
      <stop offset="100%" stop-color="#334155"/>
    </linearGradient>
    <linearGradient id="tdc-cyan" x1="0" y1="0" x2="1" y2="1">
      <stop offset="0%" stop-color="#fef3c7"/>
      <stop offset="100%" stop-color="#d97706"/>
    </linearGradient>
    <linearGradient id="tdc-orange" x1="0" y1="0" x2="1" y2="1">
      <stop offset="0%" stop-color="#fef3c7"/>
      <stop offset="100%" stop-color="#d97706"/>
    </linearGradient>
    <linearGradient id="tdc-teal" x1="0" y1="0" x2="1" y2="1">
      <stop offset="0%" stop-color="#e2e8f0"/>
      <stop offset="100%" stop-color="#334155"/>
    </linearGradient>
    <linearGradient id="tdc-rose" x1="0" y1="0" x2="1" y2="1">
      <stop offset="0%" stop-color="#fef3c7"/>
      <stop offset="100%" stop-color="#d97706"/>
    </linearGradient>
    <linearGradient id="tdc-blue" x1="0" y1="0" x2="1" y2="1">
      <stop offset="0%" stop-color="#dbeafe"/>
      <stop offset="100%" stop-color="#2563eb"/>
    </linearGradient>
    
  </defs>

  <rect width="1280" height="720" fill="#071525"/>
  <text x="92" y="112" fill="#ffffff" font-family="'Malgun Gothic', NanumGothic, Pretendard, sans-serif" font-size="52" font-weight="780">지역 수요</text>
  <text x="92" y="154" fill="#e2e8f0" font-family="'Malgun Gothic', NanumGothic, Pretendard, sans-serif" font-size="23">Map cards with regional data tone</text>
  <rect x="86" y="226" width="278" height="314" rx="24" fill="#f8fafc"/>
  <g data-role="map-legend">
    <circle cx="138" cy="302" r="20" fill="url(#tdc-orange)"/>
    <text x="138" y="310" text-anchor="middle" fill="#ffffff" font-family="'Malgun Gothic', NanumGothic, Pretendard, sans-serif" font-size="17" font-weight="840">01</text>
    <text x="178" y="296" fill="#111827" font-family="'Malgun Gothic', NanumGothic, Pretendard, sans-serif" font-size="24" font-weight="820">서부</text>
    <text x="178" y="322" fill="#64748b" font-family="'Malgun Gothic', NanumGothic, Pretendard, sans-serif" font-size="18">Demand score</text>
    <circle cx="138" cy="378" r="20" fill="url(#tdc-purple)"/>
    <text x="138" y="386" text-anchor="middle" fill="#ffffff" font-family="'Malgun Gothic', NanumGothic, Pretendard, sans-serif" font-size="17" font-weight="840">02</text>
    <text x="178" y="372" fill="#111827" font-family="'Malgun Gothic', NanumGothic, Pretendard, sans-serif" font-size="24" font-weight="820">중부</text>
    <text x="178" y="398" fill="#64748b" font-family="'Malgun Gothic', NanumGothic, Pretendard, sans-serif" font-size="18">Demand score</text>
    <circle cx="138" cy="454" r="20" fill="url(#tdc-teal)"/>
    <text x="138" y="462" text-anchor="middle" fill="#ffffff" font-family="'Malgun Gothic', NanumGothic, Pretendard, sans-serif" font-size="17" font-weight="840">03</text>
    <text x="178" y="448" fill="#111827" font-family="'Malgun Gothic', NanumGothic, Pretendard, sans-serif" font-size="24" font-weight="820">동부</text>
    <text x="178" y="474" fill="#64748b" font-family="'Malgun Gothic', NanumGothic, Pretendard, sans-serif" font-size="18">Demand score</text>
  </g>
  <rect x="396" y="174" width="744" height="416" rx="28" fill="#f1f5f9"/>
  <path data-role="map-region" d="M 424 278 C 492 226, 588 218, 654 260 C 620 302, 548 326, 458 326 Z" fill="#d8dee8" stroke="#f8fafc" stroke-width="8"/>
  <path data-role="map-region" d="M 630 280 C 704 228, 820 226, 906 274 C 854 328, 736 346, 648 322 Z" fill="#d8dee8" stroke="#f8fafc" stroke-width="8"/>
  <path data-role="map-region" d="M 490 364 C 566 326, 672 350, 730 414 C 650 464, 546 452, 474 410 Z" fill="#d8dee8" stroke="#f8fafc" stroke-width="8"/>
  <path data-role="map-region" d="M 746 388 C 842 342, 966 358, 1034 430 C 954 500, 828 490, 752 440 Z" fill="#d8dee8" stroke="#f8fafc" stroke-width="8"/>
  <circle data-role="map-bubble" cx="456.56" cy="310.00" r="36.56" fill="url(#tdc-orange)" opacity="0.94"/>
  <text x="456.56" y="318.00" text-anchor="middle" fill="#ffffff" font-family="'Malgun Gothic', NanumGothic, Pretendard, sans-serif" font-size="21" font-weight="840">52%</text>
  <circle data-role="map-bubble" cx="610.00" cy="370.00" r="33.48" fill="url(#tdc-purple)" opacity="0.94"/>
  <text x="610.00" y="378.00" text-anchor="middle" fill="#ffffff" font-family="'Malgun Gothic', NanumGothic, Pretendard, sans-serif" font-size="21" font-weight="840">41%</text>
  <circle data-role="map-bubble" cx="860.00" cy="275.00" r="39.92" fill="url(#tdc-teal)" opacity="0.94"/>
  <text x="860.00" y="283.00" text-anchor="middle" fill="#ffffff" font-family="'Malgun Gothic', NanumGothic, Pretendard, sans-serif" font-size="21" font-weight="840">64%</text>
  <rect x="868" y="514" width="224" height="44" rx="22" fill="#ffffff" opacity="0.92"/>
  <text x="980" y="543" text-anchor="middle" fill="#111827" font-family="'Malgun Gothic', NanumGothic, Pretendard, sans-serif" font-size="18" font-weight="820">SVG map geometry</text>

</svg>